<?xml version="1.0" standalone="no"?>
<!DOCTYPE svg PUBLIC "-//W3C//DTD SVG 20010904//EN"
 "http://www.w3.org/TR/2001/REC-SVG-20010904/DTD/svg10.dtd">
<svg version="1.0" xmlns="http://www.w3.org/2000/svg"
  viewBox="0 0 50.000000 50.000000"
 preserveAspectRatio="xMidYMid meet">

<g transform="translate(0.000000,50.000000) scale(0.100000,-0.100000)"
fill="#000000" stroke="none">
<path d="M162 489 c-23 -9 -47 -38 -38 -46 3 -3 15 2 26 12 22 20 112 30 141
15 15 -9 17 -15 9 -36 -6 -14 -10 -38 -10 -54 l0 -29 -82 -3 -83 -3 -3 -32 -3
-33 -60 0 -59 0 0 -140 0 -140 95 0 c110 0 117 8 65 76 -16 21 -30 47 -30 56
0 9 -6 18 -14 20 -12 2 -11 8 5 27 l19 23 19 -23 c16 -19 17 -25 5 -27 -22 -5
-16 -35 16 -78 16 -21 30 -47 30 -56 0 -16 11 -18 85 -18 99 0 106 9 55 76
-16 21 -30 47 -30 56 0 9 -6 18 -14 20 -12 2 -11 8 5 27 l19 23 19 -23 c16
-19 17 -25 5 -27 -22 -5 -16 -35 16 -78 16 -21 30 -47 30 -56 0 -15 9 -18 50
-18 l50 0 0 140 0 140 -54 0 -54 0 -6 40 c-3 22 -8 57 -12 78 -4 28 -15 45
-42 67 -31 26 -46 30 -95 30 -32 0 -66 -3 -75 -6z m192 -86 c2 -16 8 -54 11
-85 l6 -58 55 0 54 0 0 -120 0 -120 -27 0 c-22 1 -34 11 -58 47 -40 63 -40 63
-11 63 l26 0 -37 50 c-20 27 -40 50 -43 50 -3 0 -23 -23 -43 -50 -36 -48 -36
-50 -15 -50 16 -1 32 -15 53 -47 17 -26 32 -51 33 -55 2 -4 -25 -8 -60 -8
l-63 1 -30 46 c-40 63 -40 63 -11 63 l26 0 -37 50 c-20 28 -40 50 -43 50 -3 0
-23 -23 -43 -50 -36 -48 -36 -50 -15 -50 16 -1 32 -15 53 -47 17 -26 32 -51
33 -55 2 -4 -30 -8 -72 -8 l-76 0 0 120 0 120 60 0 60 0 0 35 0 35 70 0 70 0
0 -30 c0 -16 4 -30 9 -30 10 0 21 58 21 111 0 20 3 39 7 42 14 15 32 5 37 -20z"/>
<path d="M160 300 c0 -5 9 -10 20 -10 11 0 20 5 20 10 0 6 -9 10 -20 10 -11 0
-20 -4 -20 -10z"/>
<path d="M220 300 c0 -5 9 -10 20 -10 11 0 20 5 20 10 0 6 -9 10 -20 10 -11 0
-20 -4 -20 -10z"/>
<path d="M40 451 c0 -4 9 -20 21 -35 24 -31 54 -33 117 -9 36 13 48 14 64 4
26 -16 38 -3 14 15 -25 18 -54 17 -86 -1 -39 -22 -76 -18 -98 10 -20 26 -32
32 -32 16z"/>
</g>
</svg>
