<?xml version="1.0" standalone="no"?>
<!DOCTYPE svg PUBLIC "-//W3C//DTD SVG 20010904//EN"
 "http://www.w3.org/TR/2001/REC-SVG-20010904/DTD/svg10.dtd">
<svg version="1.0" xmlns="http://www.w3.org/2000/svg"
 width="225.000000pt" height="225.000000pt" viewBox="0 0 225.000000 225.000000"
 preserveAspectRatio="xMidYMid meet">

<g transform="translate(0.000000,225.000000) scale(0.100000,-0.100000)"
fill="#000000" stroke="none">
<path d="M920 2099 c-481 -74 -828 -523 -772 -1001 43 -361 279 -654 619 -768
390 -130 822 20 1049 366 242 369 189 845 -129 1156 -160 156 -368 244 -597
253 -58 2 -134 -1 -170 -6z m331 -154 c373 -101 619 -463 571 -840 -6 -52 -25
-130 -41 -174 -28 -76 -112 -222 -128 -220 -5 0 -23 32 -42 71 -42 88 -144
199 -232 250 -35 21 -68 39 -73 41 -6 2 6 26 25 53 20 27 43 68 52 92 24 61
22 177 -4 246 -55 149 -228 246 -383 216 -222 -43 -346 -264 -266 -475 6 -16
27 -52 47 -79 20 -28 32 -51 26 -53 -5 -2 -37 -20 -72 -41 -85 -50 -188 -160
-231 -247 -19 -39 -37 -72 -38 -75 -8 -11 -64 69 -101 145 -147 299 -89 649
148 886 114 114 260 191 412 218 72 13 261 5 330 -14z m-142 -405 c163 -46
211 -248 85 -358 -83 -74 -204 -74 -281 -1 -50 49 -66 86 -67 154 -1 48 4 69
26 107 50 84 147 124 237 98z m92 -581 c156 -45 302 -199 326 -342 5 -31 2
-36 -43 -65 -218 -139 -459 -168 -697 -82 -46 17 -113 50 -148 73 -76 50 -76
55 -22 166 86 178 285 293 473 274 25 -2 75 -13 111 -24z"/>
</g>
</svg>
