<?xml version="1.0" standalone="no"?>
<!DOCTYPE svg PUBLIC "-//W3C//DTD SVG 20010904//EN"
 "http://www.w3.org/TR/2001/REC-SVG-20010904/DTD/svg10.dtd">
<svg version="1.0" xmlns="http://www.w3.org/2000/svg"
 width="1024.000000pt" height="1024.000000pt" viewBox="0 0 1024.000000 1024.000000"
 preserveAspectRatio="xMidYMid meet">

<g transform="translate(0.000000,1024.000000) scale(0.100000,-0.100000)"
fill="#000000" stroke="none">
<path d="M4750 9239 c-640 -55 -1228 -244 -1773 -568 -441 -263 -851 -632
-1164 -1047 -330 -438 -567 -932 -698 -1454 -90 -358 -119 -602 -120 -1005 0
-332 12 -474 61 -743 226 -1239 1022 -2310 2149 -2893 1293 -669 2871 -592
4090 200 1114 723 1806 1928 1864 3248 51 1157 -373 2253 -1189 3073 -631 634
-1457 1045 -2340 1164 -260 35 -638 46 -880 25z m745 -384 c451 -54 849 -172
1242 -369 1042 -521 1776 -1493 1992 -2636 46 -247 56 -362 56 -680 0 -378
-22 -577 -100 -895 -165 -673 -514 -1280 -1016 -1770 -601 -586 -1330 -931
-2189 -1037 -166 -21 -682 -17 -850 5 -748 101 -1377 375 -1950 851 -111 92
-346 327 -441 441 -492 591 -772 1250 -861 2030 -19 165 -16 608 6 785 140
1171 784 2167 1796 2778 471 285 1044 465 1620 512 156 12 536 4 695 -15z"/>
<path d="M5024 8270 c-11 -4 -33 -22 -47 -40 l-27 -32 0 -1322 0 -1322 -52
-34 c-138 -91 -195 -261 -144 -428 l20 -63 -1038 -1038 c-886 -886 -1038
-1043 -1038 -1067 0 -32 33 -64 65 -64 15 0 332 311 1058 1036 l1037 1037 29
-21 c90 -64 224 -77 325 -30 67 31 137 97 164 156 l19 41 715 1 c661 0 718 1
749 18 70 35 94 109 57 180 -33 65 -1 62 -795 62 l-721 0 -24 48 c-26 51 -109
135 -144 146 l-22 7 -2 1327 c-3 1261 -4 1328 -21 1354 -33 48 -109 70 -163
48z"/>
</g>
</svg>
