<?xml version="1.0" standalone="no"?>
<!DOCTYPE svg PUBLIC "-//W3C//DTD SVG 20010904//EN"
 "http://www.w3.org/TR/2001/REC-SVG-20010904/DTD/svg10.dtd">
<svg version="1.0" xmlns="http://www.w3.org/2000/svg"
 width="272.000000pt" height="185.000000pt" viewBox="0 0 272.000000 185.000000"
 preserveAspectRatio="xMidYMid meet">

<g transform="translate(0.000000,185.000000) scale(0.100000,-0.100000)"
fill="#000000" stroke="none">
<path d="M2073 1634 c-233 -236 -914 -1072 -969 -1189 -28 -60 -32 -141 -8
-191 38 -80 165 -154 262 -154 105 1 175 61 250 214 168 344 512 1178 552
1338 21 81 8 79 -87 -18z"/>
<path d="M1192 1650 c-217 -31 -423 -114 -602 -243 -85 -62 -231 -215 -292
-308 -157 -235 -228 -476 -228 -768 0 -177 10 -205 84 -235 45 -19 47 -19 92
0 69 28 87 67 79 165 -8 99 9 262 40 378 89 333 345 611 660 719 119 41 212
54 362 51 l143 -3 85 100 c47 54 85 102 85 105 0 4 -39 14 -87 24 -102 19
-330 28 -421 15z"/>
<path d="M2240 1121 l-51 -129 37 -57 c118 -186 186 -456 169 -675 -6 -79 -5
-88 17 -120 34 -50 93 -70 150 -50 74 27 83 49 86 225 5 231 -33 414 -127 610
-60 125 -197 325 -222 325 -4 0 -30 -58 -59 -129z"/>
</g>
</svg>
