<?xml version="1.0" standalone="no"?>
<!DOCTYPE svg PUBLIC "-//W3C//DTD SVG 20010904//EN"
 "http://www.w3.org/TR/2001/REC-SVG-20010904/DTD/svg10.dtd">
<svg version="1.0" xmlns="http://www.w3.org/2000/svg"
 width="225.000000pt" height="225.000000pt" viewBox="0 0 225.000000 225.000000"
 preserveAspectRatio="xMidYMid meet">

<g transform="translate(0.000000,225.000000) scale(0.100000,-0.100000)"
fill="#000000" stroke="none">
<path d="M180 2241 c-69 -21 -121 -65 -156 -131 -18 -33 -19 -77 -19 -985 0
-908 1 -952 19 -985 26 -49 64 -88 111 -113 l40 -22 950 0 950 0 40 22 c47 25
85 64 111 113 18 33 19 77 19 985 l0 950 -22 40 c-25 47 -64 85 -113 111 -33
18 -79 19 -970 21 -514 1 -946 -2 -960 -6z m1330 -261 l0 -100 -385 0 -385 0
0 100 0 100 385 0 385 0 0 -100z m530 -1020 l0 -730 -915 0 -915 0 0 730 0
730 915 0 915 0 0 -730z"/>
<path d="M800 1290 l0 -120 120 0 120 0 0 120 0 120 -120 0 -120 0 0 -120z"/>
<path d="M1210 1290 l0 -120 115 0 115 0 0 120 0 120 -115 0 -115 0 0 -120z"/>
<path d="M1610 1290 l0 -120 120 0 120 0 0 120 0 120 -120 0 -120 0 0 -120z"/>
<path d="M400 910 l0 -120 115 0 115 0 0 120 0 120 -115 0 -115 0 0 -120z"/>
<path d="M800 910 l0 -120 120 0 120 0 0 120 0 120 -120 0 -120 0 0 -120z"/>
<path d="M1210 910 l0 -120 115 0 115 0 0 120 0 120 -115 0 -115 0 0 -120z"/>
<path d="M1610 910 l0 -120 120 0 120 0 0 120 0 120 -120 0 -120 0 0 -120z"/>
<path d="M400 520 l0 -120 115 0 115 0 0 120 0 120 -115 0 -115 0 0 -120z"/>
<path d="M800 520 l0 -120 120 0 120 0 0 120 0 120 -120 0 -120 0 0 -120z"/>
<path d="M1210 520 l0 -120 115 0 115 0 0 120 0 120 -115 0 -115 0 0 -120z"/>
</g>
</svg>
