<?xml version="1.0" standalone="no"?>
<!DOCTYPE svg PUBLIC "-//W3C//DTD SVG 20010904//EN"
 "http://www.w3.org/TR/2001/REC-SVG-20010904/DTD/svg10.dtd">
<svg version="1.0" xmlns="http://www.w3.org/2000/svg"
 width="860.000000pt" height="900.000000pt" viewBox="0 0 860.000000 900.000000"
 preserveAspectRatio="xMidYMid meet">

<g transform="translate(0.000000,900.000000) scale(0.100000,-0.100000)"
fill="#000000" stroke="none">
<path d="M2273 8152 l-1963 -437 0 -3117 c0 -2960 1 -3117 18 -3122 9 -3 899
-201 1977 -441 l1959 -435 353 0 353 0 0 500 0 500 1665 0 1665 0 0 2995 0
2995 -1665 0 -1665 0 0 500 0 500 -367 -1 -368 -1 -1962 -436z m2022 -6870
c-2 -2 -750 161 -1662 364 l-1658 369 -3 2582 -2 2582 52 11 c29 6 778 172
1663 369 l1610 358 3 -3315 c1 -1824 0 -3317 -3 -3320z m3335 3318 l0 -2330
-1330 0 -1330 0 0 330 0 330 333 2 332 3 0 330 0 330 -332 3 -333 2 0 165 0
165 335 0 335 0 -2 333 -3 332 -332 3 -333 2 0 165 0 165 335 0 335 0 -2 333
-3 332 -332 3 -333 2 0 165 0 165 335 0 335 0 -2 333 -3 332 -332 3 -333 2 0
165 0 165 1330 0 1330 0 0 -2330z"/>
<path d="M3290 6214 c-190 -24 -350 -46 -356 -48 -21 -8 -416 -877 -461 -1014
-23 -74 -43 -140 -43 -148 0 -8 -4 -14 -9 -14 -5 0 -19 37 -31 83 -12 45 -30
102 -40 127 -9 25 -66 221 -125 435 -59 215 -109 392 -111 394 -9 10 -716 -84
-721 -95 -4 -11 110 -277 502 -1174 l72 -165 -329 -659 c-181 -362 -327 -660
-324 -663 10 -10 699 -94 707 -86 12 12 313 858 340 955 13 49 27 88 30 88 3
0 14 -37 23 -82 16 -81 74 -215 417 -963 l69 -150 403 -51 c221 -28 404 -50
405 -48 2 1 -195 379 -437 839 l-442 836 377 722 c207 397 401 768 431 825
l55 102 -29 -1 c-15 -1 -183 -21 -373 -45z"/>
<path d="M5970 6265 l0 -335 665 0 665 0 0 335 0 335 -665 0 -665 0 0 -335z"/>
<path d="M5970 5265 l0 -335 665 0 665 0 0 335 0 335 -665 0 -665 0 0 -335z"/>
<path d="M5970 4265 l0 -335 665 0 665 0 0 335 0 335 -665 0 -665 0 0 -335z"/>
<path d="M5970 3265 l0 -335 665 0 665 0 0 335 0 335 -665 0 -665 0 0 -335z"/>
</g>
</svg>
