<?xml version="1.0" standalone="no"?>
<!DOCTYPE svg PUBLIC "-//W3C//DTD SVG 20010904//EN"
 "http://www.w3.org/TR/2001/REC-SVG-20010904/DTD/svg10.dtd">
<svg version="1.0" xmlns="http://www.w3.org/2000/svg"
 width="269.000000pt" height="187.000000pt" viewBox="0 0 269.000000 187.000000"
 preserveAspectRatio="xMidYMid meet">

<g transform="translate(0.000000,187.000000) scale(0.100000,-0.100000)"
fill="#000000" stroke="none">
<path d="M1220 1594 c-124 -24 -304 -58 -400 -76 l-175 -33 -3 -547 -2 -547
37 -10 c21 -6 112 -24 203 -41 91 -16 257 -48 370 -69 113 -22 206 -38 208
-37 2 2 3 550 2 1234 0 94 -3 172 -7 171 -5 -1 -109 -21 -233 -45z m-235 -441
c15 -32 36 -77 46 -100 l20 -42 51 99 52 100 72 0 72 0 -79 -131 c-84 -139
-92 -156 -71 -151 8 1 11 -2 8 -7 -4 -5 28 -65 69 -133 l75 -123 -66 -3 c-37
-2 -72 -1 -78 1 -6 3 -33 49 -61 103 l-50 99 -48 -95 c-27 -52 -52 -99 -56
-103 -5 -4 -40 -7 -79 -5 l-72 3 76 120 c42 66 80 128 85 137 7 13 -10 50 -70
152 l-80 136 79 0 79 0 26 -57z"/>
<path d="M1548 1293 c7 -3 16 -2 19 1 4 3 -2 6 -13 5 -11 0 -14 -3 -6 -6z"/>
<path d="M1738 1293 c34 -2 90 -2 125 0 34 2 6 3 -63 3 -69 0 -97 -1 -62 -3z"/>
<path d="M1493 1163 c15 -2 37 -2 50 0 12 2 0 4 -28 4 -27 0 -38 -2 -22 -4z"/>
<path d="M1722 1163 c37 -2 100 -2 140 0 40 1 10 3 -67 3 -77 0 -110 -1 -73
-3z"/>
<path d="M1493 703 c15 -2 39 -2 55 0 15 2 2 4 -28 4 -30 0 -43 -2 -27 -4z"/>
<path d="M1733 703 c43 -2 110 -2 150 0 40 1 5 3 -78 3 -82 0 -115 -2 -72 -3z"/>
<path d="M1538 573 c6 -2 18 -2 25 0 6 3 1 5 -13 5 -14 0 -19 -2 -12 -5z"/>
<path d="M1748 573 c7 -3 16 -2 19 1 4 3 -2 6 -13 5 -11 0 -14 -3 -6 -6z"/>
<path d="M1858 573 c12 -2 32 -2 45 0 12 2 2 4 -23 4 -25 0 -35 -2 -22 -4z"/>
</g>
</svg>
