<?xml version="1.0" standalone="no"?>
<!DOCTYPE svg PUBLIC "-//W3C//DTD SVG 20010904//EN"
 "http://www.w3.org/TR/2001/REC-SVG-20010904/DTD/svg10.dtd">
<svg version="1.0" xmlns="http://www.w3.org/2000/svg"
 width="366.000000pt" height="138.000000pt" viewBox="0 0 366.000000 138.000000"
 preserveAspectRatio="xMidYMid meet">

<g transform="translate(0.000000,138.000000) scale(0.100000,-0.100000)"
fill="#000000" stroke="none">
<path d="M1660 1060 l-235 -45 0 -325 0 -325 235 -45 235 -46 3 208 c1 114 1
302 0 416 l-3 208 -235 -46z m-32 -258 l28 -59 32 59 c31 56 34 58 72 58 22 0
40 -3 40 -7 0 -3 -21 -41 -46 -84 l-46 -79 46 -75 c25 -42 46 -80 46 -86 0 -6
-18 -9 -42 -7 -41 3 -44 6 -74 61 l-31 58 -32 -60 c-32 -61 -32 -61 -77 -61
-24 0 -44 2 -44 5 0 2 23 40 51 85 l51 80 -46 79 c-25 44 -46 83 -46 86 0 3
20 5 45 5 l46 0 27 -58z"/>
</g>
</svg>
