<?xml version="1.0" standalone="no"?>
<!DOCTYPE svg PUBLIC "-//W3C//DTD SVG 20010904//EN"
 "http://www.w3.org/TR/2001/REC-SVG-20010904/DTD/svg10.dtd">
<svg version="1.0" xmlns="http://www.w3.org/2000/svg"
 width="225.000000pt" height="225.000000pt" viewBox="0 0 225.000000 225.000000"
 preserveAspectRatio="xMidYMid meet">

<g transform="translate(0.000000,225.000000) scale(0.100000,-0.100000)"
fill="#000000" stroke="none">
<path d="M1945 2241 c-135 -33 -217 -181 -171 -311 l16 -45 -199 -199 -199
-199 -58 29 c-52 25 -70 29 -149 29 -80 0 -97 -3 -145 -28 l-53 -28 -157 153
c-103 101 -155 158 -152 168 3 8 7 36 10 62 5 60 -20 112 -69 145 -33 22 -47
25 -97 21 -69 -5 -104 -27 -132 -84 -64 -128 47 -264 185 -226 l40 11 156
-155 155 -155 -30 -62 c-27 -53 -31 -72 -31 -143 0 -71 4 -88 31 -141 l31 -61
-257 -257 -258 -258 -28 20 c-120 83 -288 40 -356 -91 -33 -61 -31 -155 3
-221 86 -168 328 -174 424 -11 34 58 42 136 21 196 l-16 45 262 262 262 262
35 -21 c19 -12 55 -27 81 -34 l45 -11 3 -207 c2 -190 1 -207 -15 -212 -175
-50 -245 -248 -139 -387 90 -117 276 -124 373 -14 106 121 69 309 -74 381 -18
9 -39 16 -48 16 -13 0 -15 27 -15 215 l0 215 24 0 c13 0 48 13 79 28 l56 28
157 -157 c147 -147 155 -158 144 -179 -17 -31 -7 -115 17 -148 38 -51 70 -67
133 -67 66 0 99 18 138 75 44 65 22 169 -47 216 -36 24 -112 32 -154 15 -15
-5 -51 24 -175 146 l-156 153 30 61 c25 54 29 73 29 148 0 75 -4 94 -29 145
l-29 58 195 195 194 194 46 -26 c117 -65 250 -33 325 77 121 181 -49 421 -262
369z m135 -94 c50 -26 90 -90 90 -141 0 -51 -40 -118 -85 -143 -143 -80 -302
79 -222 222 25 45 92 85 143 85 17 0 50 -10 74 -23z m-1492 -207 c33 -31 30
-92 -4 -119 -36 -28 -79 -27 -109 4 -51 50 -17 135 54 135 24 0 45 -7 59 -20z
m728 -505 c125 -78 153 -253 58 -363 -89 -104 -229 -120 -336 -39 -114 87
-129 246 -35 354 58 65 105 84 193 81 58 -3 80 -9 120 -33z m582 -808 c49 -45
11 -137 -58 -137 -69 0 -107 92 -57 137 41 38 73 38 115 0z m-1581 -153 c119
-57 121 -229 3 -291 -55 -29 -95 -29 -150 0 -50 26 -90 90 -90 144 0 62 51
133 110 156 30 11 93 7 127 -9z m940 -80 c83 -40 117 -149 71 -229 -26 -45
-93 -85 -144 -85 -51 0 -115 40 -141 90 -29 55 -29 95 0 151 42 78 135 110
214 73z"/>
</g>
</svg>
