<?xml version="1.0" standalone="no"?>
<!DOCTYPE svg PUBLIC "-//W3C//DTD SVG 20010904//EN"
 "http://www.w3.org/TR/2001/REC-SVG-20010904/DTD/svg10.dtd">
<svg version="1.0" xmlns="http://www.w3.org/2000/svg"
 width="225.000000pt" height="224.000000pt" viewBox="0 0 225.000000 224.000000"
 preserveAspectRatio="xMidYMid meet">

<g transform="translate(0.000000,224.000000) scale(0.100000,-0.100000)"
fill="#000000" stroke="none">
<path d="M1015 2230 c-279 -43 -507 -235 -602 -506 -26 -74 -27 -90 -28 -244
0 -191 11 -242 80 -385 53 -111 134 -208 245 -298 47 -37 92 -81 100 -98 13
-28 13 -31 -12 -52 -48 -40 -60 -89 -35 -137 11 -21 11 -30 -2 -58 -13 -27
-13 -40 -3 -78 10 -36 10 -54 1 -79 -21 -58 15 -126 77 -141 59 -15 83 41 27
65 -37 17 -47 35 -33 62 10 18 24 19 220 19 l210 0 6 24 c3 14 3 30 -1 35 -4
7 -79 11 -215 11 -199 0 -210 1 -220 20 -8 14 -8 26 0 40 10 19 21 20 220 20
136 0 211 4 215 11 4 5 4 21 1 35 l-6 24 -210 0 c-202 0 -210 1 -220 21 -9 16
-8 25 6 40 16 18 33 19 220 19 132 0 205 4 209 11 4 5 4 21 1 34 l-6 25 -182
2 -182 3 -10 35 c-6 22 -30 53 -65 85 -232 211 -296 296 -341 455 -30 105 -37
281 -16 380 29 140 118 286 231 380 57 47 207 122 277 139 68 16 243 14 313
-4 98 -25 214 -88 290 -157 211 -193 277 -482 179 -778 -47 -140 -121 -237
-282 -372 -92 -77 -113 -110 -116 -176 -1 -40 2 -47 29 -62 20 -11 30 -24 30
-40 0 -16 -10 -29 -30 -40 -16 -9 -30 -25 -30 -35 0 -10 14 -26 30 -35 20 -11
30 -24 30 -40 0 -16 -10 -29 -30 -40 -16 -9 -30 -25 -30 -35 0 -10 14 -26 30
-35 20 -11 31 -26 33 -43 2 -15 2 -28 0 -29 -2 -1 -100 -4 -218 -7 l-215 -6
-3 -72 c-3 -67 -1 -74 27 -105 29 -33 31 -33 116 -33 85 0 87 1 116 33 22 24
29 42 29 72 l0 40 73 0 c87 0 129 21 146 73 9 27 9 43 -2 74 -11 33 -11 44 1
72 11 29 11 41 0 75 -11 32 -11 48 -1 76 15 46 7 78 -30 117 -42 45 -33 70 56
140 258 204 368 437 354 748 -9 214 -99 396 -266 538 -65 56 -210 130 -296
152 -77 20 -213 26 -290 15z m185 -2104 c0 -38 -25 -56 -79 -56 -54 0 -71 12
-71 52 l0 28 75 0 c73 0 75 -1 75 -24z"/>
<path d="M267 2213 c-22 -22 -2 -52 78 -117 84 -67 108 -76 121 -41 8 19 -17
48 -99 116 -54 46 -84 58 -100 42z"/>
<path d="M1858 2153 c-78 -67 -91 -90 -63 -113 17 -15 52 7 143 86 59 52 67
87 22 92 -19 2 -45 -15 -102 -65z"/>
<path d="M82 1888 c-17 -17 -15 -46 6 -57 43 -23 193 -70 207 -65 21 8 19 51
-4 63 -21 11 -182 71 -191 71 -3 0 -11 -5 -18 -12z"/>
<path d="M2040 1864 c-110 -40 -127 -56 -95 -87 18 -18 51 -11 163 35 73 30
87 49 60 76 -16 16 -20 16 -128 -24z"/>
<path d="M785 1698 c-32 -17 -76 -61 -91 -90 -24 -46 -18 -128 13 -175 39 -60
86 -83 188 -90 l85 -6 0 -267 c0 -220 3 -270 14 -279 11 -9 20 -10 35 -1 20
10 21 18 21 280 l0 270 75 0 75 0 0 -270 c0 -244 2 -270 17 -279 11 -6 24 -6
35 0 17 9 18 31 18 278 l0 268 84 6 c92 6 126 19 168 64 71 75 64 190 -15 260
-62 54 -167 58 -233 8 -51 -39 -74 -94 -74 -182 l0 -73 -74 0 -73 0 -6 85 c-6
101 -33 152 -97 185 -43 22 -132 27 -165 8z m146 -86 c32 -29 48 -78 49 -154
l0 -38 -81 0 c-79 0 -82 1 -116 35 -33 33 -35 39 -30 82 10 95 109 136 178 75z
m529 -1 c50 -49 52 -105 6 -158 -22 -25 -33 -29 -103 -34 -43 -3 -81 -4 -85
-2 -12 6 -9 102 3 146 21 76 124 103 179 48z"/>
<path d="M10 1511 c-5 -11 -7 -27 -4 -35 5 -13 26 -16 124 -16 111 0 119 1
125 20 13 41 -10 50 -126 50 -97 0 -109 -2 -119 -19z"/>
<path d="M2000 1515 c-6 -8 -10 -22 -8 -32 3 -16 17 -18 119 -21 92 -2 119 0
128 12 9 11 10 20 1 35 -10 19 -20 21 -119 21 -83 0 -111 -3 -121 -15z"/>
</g>
</svg>
