<?xml version="1.0" standalone="no"?>
<!DOCTYPE svg PUBLIC "-//W3C//DTD SVG 20010904//EN"
 "http://www.w3.org/TR/2001/REC-SVG-20010904/DTD/svg10.dtd">
<svg version="1.0" xmlns="http://www.w3.org/2000/svg"
 width="225.000000pt" height="225.000000pt" viewBox="0 0 225.000000 225.000000"
 preserveAspectRatio="xMidYMid meet">

<g transform="translate(0.000000,225.000000) scale(0.100000,-0.100000)"
fill="#000000" stroke="none">
<path d="M1780 1170 l0 -980 -95 0 -95 0 0 700 0 700 -185 0 -185 0 0 -700 0
-700 -95 0 -95 0 0 465 0 465 -185 0 -185 0 0 -465 0 -465 -95 0 -95 0 0 230
0 230 -185 0 -185 0 0 -230 0 -230 -50 0 -50 0 0 -45 0 -45 1125 0 1125 0 0
45 0 45 -50 0 -50 0 0 980 0 980 -185 0 -185 0 0 -980z m280 -45 l0 -935 -95
0 -95 0 0 935 0 935 95 0 95 0 0 -935z m-560 -280 l0 -655 -95 0 -95 0 0 655
0 655 95 0 95 0 0 -655z m-560 -235 l0 -420 -95 0 -95 0 0 420 0 420 95 0 95
0 0 -420z m-560 -235 l0 -185 -95 0 -95 0 0 185 0 185 95 0 95 0 0 -185z"/>
</g>
</svg>
